<svg width="132" height="45" viewBox="0 0 132 45" fill="none" xmlns="http://www.w3.org/2000/svg">
<path d="M63.6815 21C61.6374 21 60.1244 20.5135 59.1426 19.5406C58.1696 18.5587 57.6831 17.0457 57.6831 15.0016V8.81574C57.6831 6.75379 58.1741 5.2408 59.1559 4.27677C60.1378 3.30381 61.6464 2.82626 63.6815 2.84411H66.895C68.948 2.84411 70.461 3.33059 71.4339 4.30354C72.4069 5.2765 72.8934 6.78949 72.8934 8.84252V15.0016C72.8934 17.0457 72.4069 18.5587 71.4339 19.5406C70.461 20.5135 68.948 21 66.895 21H63.6815ZM63.6815 18.7506H66.895C67.8501 18.7506 68.5999 18.639 69.1444 18.4159C69.6889 18.1838 70.0727 17.7955 70.2958 17.251C70.5279 16.7065 70.644 15.9567 70.644 15.0016V8.84252C70.644 7.89634 70.5279 7.151 70.2958 6.6065C70.0727 6.06201 69.6889 5.67372 69.1444 5.44164C68.5999 5.20955 67.8501 5.09351 66.895 5.09351H63.6815C62.7354 5.08459 61.99 5.1917 61.4455 5.41486C60.901 5.63801 60.5127 6.02184 60.2806 6.56634C60.0486 7.11083 59.9325 7.86064 59.9325 8.81574V15.0016C59.9325 15.9567 60.0441 16.7065 60.2673 17.251C60.4993 17.7955 60.8876 18.1838 61.4321 18.4159C61.9766 18.639 62.7264 18.7506 63.6815 18.7506Z" fill="white"/>
<path d="M77.3263 21C76.5765 21 76.2016 20.6251 76.2016 19.8753V3.96881C76.2016 3.21901 76.5765 2.84411 77.3263 2.84411H84.3155C85.7348 2.84411 86.8238 3.21901 87.5825 3.96881C88.3501 4.71861 88.734 5.78976 88.734 7.18224V7.90527C88.734 9.1103 88.3546 10.0431 87.5959 10.7036C89.0151 11.4981 89.7248 12.9486 89.7248 15.0552V15.9656C89.7248 17.608 89.2874 18.8577 88.4126 19.7146C87.5468 20.5715 86.2971 21 84.6636 21H77.3263ZM78.451 18.7506H84.6636C85.6723 18.7506 86.3908 18.5364 86.8193 18.1079C87.2567 17.6705 87.4754 16.9564 87.4754 15.9656V15.0552C87.4754 14.0643 87.2656 13.3592 86.8461 12.9396C86.4265 12.5112 85.6991 12.297 84.6636 12.297H78.451V18.7506ZM78.451 10.0476H84.7975C85.4491 10.0476 85.891 9.84672 86.123 9.44504C86.3641 9.04336 86.4846 8.5301 86.4846 7.90527V7.18224C86.4846 6.40566 86.3239 5.86563 86.0025 5.56214C85.6812 5.24972 85.1188 5.09351 84.3155 5.09351H78.451V10.0476Z" fill="white"/>
<path d="M104.288 21.0536C103.994 21.241 103.713 21.299 103.445 21.2276C103.177 21.1562 102.949 20.9732 102.762 20.6787L98.6113 13.7698H94.8623V19.8753C94.8623 20.6251 94.4874 21 93.7376 21C92.9878 21 92.6129 20.6251 92.6129 19.8753V3.96881C92.6129 3.21901 92.9878 2.84411 93.7376 2.84411H100.004C101.637 2.84411 102.887 3.28149 103.753 4.15626C104.628 5.0221 105.065 6.27177 105.065 7.90527V8.70863C105.065 10.1279 104.735 11.2615 104.074 12.1095C103.414 12.9486 102.458 13.4708 101.209 13.6761L104.717 19.5272C105.056 20.152 104.913 20.6608 104.288 21.0536ZM94.8623 11.5204H100.004C101.021 11.5204 101.744 11.3061 102.173 10.8777C102.601 10.4492 102.816 9.72621 102.816 8.70863V7.90527C102.816 6.89661 102.601 6.17805 102.173 5.74959C101.744 5.3122 101.021 5.09351 100.004 5.09351H94.8623V11.5204Z" fill="white"/>
<path d="M106.886 20.8929C106.172 20.6162 105.958 20.1252 106.243 19.4201L112.616 3.7278C112.884 3.13867 113.304 2.84411 113.875 2.84411H113.929C114.509 2.87089 114.902 3.16545 115.107 3.7278L121.587 19.4201C121.873 20.1252 121.668 20.6162 120.971 20.8929C120.266 21.1696 119.775 20.9643 119.499 20.277L118.053 16.769H109.711L108.332 20.277C108.055 20.9732 107.573 21.1785 106.886 20.8929ZM110.595 14.5196H117.129L113.795 6.40567L110.595 14.5196Z" fill="white"/>
<path d="M63.6815 43C61.6374 43 60.1244 42.5135 59.1426 41.5406C58.1696 40.5587 57.6831 39.0457 57.6831 37.0016V30.8425C57.6831 28.7806 58.1696 27.2631 59.1426 26.2902C60.1155 25.3083 61.6196 24.8263 63.6547 24.8441H66.895C68.5731 24.8441 69.854 25.1922 70.7377 25.8885C71.6214 26.5758 72.1346 27.6648 72.2775 29.1555C72.331 29.5304 72.2596 29.816 72.0632 30.0124C71.8669 30.2088 71.5812 30.3069 71.2063 30.3069C70.5279 30.3069 70.1352 29.932 70.0281 29.1822C69.9388 28.361 69.6532 27.8076 69.1711 27.522C68.6981 27.2363 67.9393 27.0935 66.895 27.0935H63.6547C62.7086 27.0846 61.9632 27.1917 61.4187 27.4149C60.8832 27.638 60.4993 28.0263 60.2673 28.5797C60.0441 29.1242 59.9325 29.8785 59.9325 30.8425V37.0016C59.9325 37.9567 60.0441 38.7065 60.2673 39.251C60.4993 39.7955 60.8876 40.1838 61.4321 40.4159C61.9766 40.639 62.7264 40.7506 63.6815 40.7506H66.895C67.9393 40.7506 68.6981 40.6078 69.1711 40.3221C69.6532 40.0276 69.9388 39.4742 70.0281 38.6619C70.1352 37.9121 70.5279 37.5372 71.2063 37.5372C71.5812 37.5372 71.8669 37.6354 72.0632 37.8317C72.2596 38.0281 72.331 38.3137 72.2775 38.6886C72.1346 40.1883 71.6214 41.2817 70.7377 41.969C69.854 42.6563 68.5731 43 66.895 43H63.6815Z" fill="white"/>
<path d="M76.4894 43C75.7396 43 75.3647 42.6251 75.3647 41.8753V25.9688C75.3647 25.219 75.7396 24.8441 76.4894 24.8441H86.103C86.8528 24.8441 87.2277 25.219 87.2277 25.9688C87.2277 26.7186 86.8528 27.0935 86.103 27.0935H77.6141V32.717H82.9431C83.6929 32.717 84.0678 33.0919 84.0678 33.8417C84.0678 34.5915 83.6929 34.9664 82.9431 34.9664H77.6141V40.7506H86.103C86.8528 40.7506 87.2277 41.1255 87.2277 41.8753C87.2277 42.6251 86.8528 43 86.103 43H76.4894Z" fill="white"/>
<path d="M101.569 43.0536C101.274 43.241 100.993 43.299 100.725 43.2276C100.457 43.1562 100.23 42.9732 100.042 42.6787L95.8916 35.7698H92.1426V41.8753C92.1426 42.6251 91.7677 43 91.0179 43C90.2681 43 89.8932 42.6251 89.8932 41.8753V25.9688C89.8932 25.219 90.2681 24.8441 91.0179 24.8441H97.2841C98.9176 24.8441 100.167 25.2815 101.033 26.1563C101.908 27.0221 102.345 28.2718 102.345 29.9053V30.7086C102.345 32.1279 102.015 33.2615 101.354 34.1095C100.694 34.9486 99.7388 35.4708 98.4891 35.6761L101.997 41.5272C102.336 42.152 102.193 42.6608 101.569 43.0536ZM92.1426 33.5204H97.2841C98.3017 33.5204 99.0247 33.3061 99.4531 32.8777C99.8816 32.4492 100.096 31.7262 100.096 30.7086V29.9053C100.096 28.8966 99.8816 28.178 99.4531 27.7496C99.0247 27.3122 98.3017 27.0935 97.2841 27.0935H92.1426V33.5204Z" fill="white"/>
<path d="M109.936 43C109.561 43 109.28 42.9063 109.093 42.7188C108.905 42.5314 108.811 42.2502 108.811 41.8753V27.1203H103.616C103.241 27.1203 102.96 27.0266 102.773 26.8391C102.585 26.6517 102.492 26.3705 102.492 25.9956C102.492 25.6207 102.585 25.3395 102.773 25.1521C102.96 24.9646 103.241 24.8709 103.616 24.8709H116.256C116.631 24.8709 116.912 24.9646 117.099 25.1521C117.287 25.3395 117.381 25.6207 117.381 25.9956C117.381 26.3705 117.287 26.6517 117.099 26.8391C116.912 27.0266 116.631 27.1203 116.256 27.1203H111.061V41.8753C111.061 42.2323 110.963 42.5091 110.766 42.7054C110.579 42.9018 110.302 43 109.936 43Z" fill="white"/>
<path d="M116.341 42.8929C115.627 42.6162 115.413 42.1252 115.698 41.4201L122.072 25.7278C122.339 25.1387 122.759 24.8441 123.33 24.8441H123.384C123.964 24.8709 124.357 25.1655 124.562 25.7278L131.042 41.4201C131.328 42.1252 131.123 42.6162 130.427 42.8929C129.721 43.1696 129.23 42.9643 128.954 42.277L127.508 38.769H119.166L117.787 42.277C117.51 42.9732 117.028 43.1785 116.341 42.8929ZM120.05 36.5196H126.584L123.25 28.4057L120.05 36.5196Z" fill="white"/>
<path fill-rule="evenodd" clip-rule="evenodd" d="M25.1043 0.495728H1.98359C0.888073 0.495728 -1.52588e-05 1.38382 -1.52588e-05 2.47933V42.1513C-1.52588e-05 43.2468 0.888075 44.1349 1.98359 44.1349H41.9169C42.7385 44.1349 43.4046 43.4689 43.4046 42.6472V26.9201C43.4046 26.5255 43.2478 26.1471 42.9688 25.8681L35.1929 18.0922L42.558 10.7271C42.8704 10.4147 42.6492 9.8805 42.2074 9.8805H36.8946C36.1055 9.8805 35.3487 10.194 34.7907 10.752L25.1043 20.4384V0.495728ZM31.7922 22.9007L25.4842 29.2087C25.3912 29.3017 25.3389 29.4279 25.3389 29.5594V38.0082C25.3389 38.2821 25.5609 38.5041 25.8348 38.5041H37.9817C38.2556 38.5041 38.4776 38.2821 38.4776 38.0082V29.0901C38.4776 28.9586 38.4254 28.8325 38.3324 28.7395L32.4935 22.9007C32.2999 22.707 31.9859 22.707 31.7922 22.9007ZM6.12679 5.8921C5.85291 5.8921 5.63089 6.11412 5.63089 6.388V38.2429C5.63089 38.5168 5.85291 38.7388 6.12679 38.7388H18.7429C19.0168 38.7388 19.2388 38.5168 19.2388 38.2429V6.388C19.2388 6.11412 19.0168 5.8921 18.7429 5.8921H6.12679Z" fill="#FFB930"/>
</svg>
