<svg width="73" height="73" viewBox="0 0 73 73" fill="none" xmlns="http://www.w3.org/2000/svg">
<path d="M0 73V16.7292H16.7292V0H56.2708V33.4583H73V73H41.8736V56.2708H31.1264V73H0ZM6.08333 66.9167H16.7292V56.2708H6.08333V66.9167ZM6.08333 50.1875H16.7292V39.5417H6.08333V50.1875ZM6.08333 33.4583H16.7292V22.8125H6.08333V33.4583ZM22.8125 50.1875H33.4583V39.5417H22.8125V50.1875ZM22.8125 33.4583H33.4583V22.8125H22.8125V33.4583ZM22.8125 16.7292H33.4583V6.08333H22.8125V16.7292ZM39.5417 50.1875H50.1875V39.5417H39.5417V50.1875ZM39.5417 33.4583H50.1875V22.8125H39.5417V33.4583ZM39.5417 16.7292H50.1875V6.08333H39.5417V16.7292ZM56.2708 66.9167H66.9167V56.2708H56.2708V66.9167ZM56.2708 50.1875H66.9167V39.5417H56.2708V50.1875Z" fill="#FFB930"/>
</svg>
