<svg width="72" height="72" viewBox="0 0 72 72" fill="none" xmlns="http://www.w3.org/2000/svg">
<path d="M35.7 72C25.7667 72 17.3333 68.4833 10.4 61.45C3.46667 54.4167 0 45.9 0 35.9H6C6 44.2333 8.86667 51.3333 14.6 57.2C20.3333 63.0667 27.3667 66 35.7 66C44.1667 66 51.3333 63.0333 57.2 57.1C63.0667 51.1667 66 43.9667 66 35.5C66 27.2333 63.0333 20.25 57.1 14.55C51.1667 8.85 44.0333 6 35.7 6C31.1667 6 26.9167 7.03333 22.95 9.1C18.9833 11.1667 15.5333 13.9 12.6 17.3H23.1V23.3H2.2V2.5H8.2V13.1C11.6667 9.03333 15.7833 5.83333 20.55 3.5C25.3167 1.16667 30.3667 0 35.7 0C40.7 0 45.4 0.933334 49.8 2.8C54.2 4.66667 58.05 7.21667 61.35 10.45C64.65 13.6833 67.25 17.4667 69.15 21.8C71.05 26.1333 72 30.8 72 35.8C72 40.8 71.05 45.5 69.15 49.9C67.25 54.3 64.65 58.1333 61.35 61.4C58.05 64.6667 54.2 67.25 49.8 69.15C45.4 71.05 40.7 72 35.7 72ZM48.5 52.3L33.1 37.1V15.7H39.1V34.6L52.8 48L48.5 52.3Z" fill="#FFB930"/>
</svg>
