<svg width="70" height="70" viewBox="0 0 70 70" fill="none" xmlns="http://www.w3.org/2000/svg">
<path d="M14.2188 28.4375C10.2812 28.4375 6.92708 27.0521 4.15625 24.2812C1.38542 21.5104 0 18.1562 0 14.2188C0 10.2812 1.38542 6.92708 4.15625 4.15625C6.92708 1.38542 10.2812 0 14.2188 0C18.1562 0 21.5104 1.38542 24.2812 4.15625C27.0521 6.92708 28.4375 10.2812 28.4375 14.2188C28.4375 18.1562 27.0521 21.5104 24.2812 24.2812C21.5104 27.0521 18.1562 28.4375 14.2188 28.4375ZM14.2188 21.875C16.3333 21.875 18.138 21.1276 19.6328 19.6328C21.1276 18.138 21.875 16.3333 21.875 14.2188C21.875 12.1042 21.1276 10.2995 19.6328 8.80469C18.138 7.3099 16.3333 6.5625 14.2188 6.5625C12.1042 6.5625 10.2995 7.3099 8.80469 8.80469C7.3099 10.2995 6.5625 12.1042 6.5625 14.2188C6.5625 16.3333 7.3099 18.138 8.80469 19.6328C10.2995 21.1276 12.1042 21.875 14.2188 21.875ZM55.7812 70C51.8438 70 48.4896 68.6146 45.7188 65.8438C42.9479 63.0729 41.5625 59.7188 41.5625 55.7812C41.5625 51.8438 42.9479 48.4896 45.7188 45.7188C48.4896 42.9479 51.8438 41.5625 55.7812 41.5625C59.7188 41.5625 63.0729 42.9479 65.8438 45.7188C68.6146 48.4896 70 51.8438 70 55.7812C70 59.7188 68.6146 63.0729 65.8438 65.8438C63.0729 68.6146 59.7188 70 55.7812 70ZM55.7812 63.4375C57.8958 63.4375 59.7005 62.6901 61.1953 61.1953C62.6901 59.7005 63.4375 57.8958 63.4375 55.7812C63.4375 53.6667 62.6901 51.862 61.1953 50.3672C59.7005 48.8724 57.8958 48.125 55.7812 48.125C53.6667 48.125 51.862 48.8724 50.3672 50.3672C48.8724 51.862 48.125 53.6667 48.125 55.7812C48.125 57.8958 48.8724 59.7005 50.3672 61.1953C51.862 62.6901 53.6667 63.4375 55.7812 63.4375ZM4.59375 70L0 65.4062L65.4062 0L70 4.59375L4.59375 70Z" fill="#FFB930"/>
</svg>
